<?xml version="1.0" standalone="no"?>
<!DOCTYPE svg PUBLIC "-//W3C//DTD SVG 20010904//EN"
 "http://www.w3.org/TR/2001/REC-SVG-20010904/DTD/svg10.dtd">
<svg version="1.0" xmlns="http://www.w3.org/2000/svg"
 width="1549.000000pt" height="1549.000000pt" viewBox="0 0 1549.000000 1549.000000"
 preserveAspectRatio="xMidYMid meet">
<metadata>
Created by potrace 1.11, written by Peter Selinger 2001-2013
</metadata>
<g transform="translate(0.000000,1549.000000) scale(0.100000,-0.100000)"
fill="#000000" stroke="none">
<path d="M1890 12127 c0 -3732 6 -3415 -68 -3512 -27 -36 -57 -60 -106 -85
-59 -30 -77 -34 -139 -34 -123 0 -226 64 -284 177 -24 46 -28 65 -31 175 l-4
122 -629 0 -629 0 0 -312 0 -313 4542 3 4543 3 0 -1823 0 -1823 -192 -3 -193
-2 0 1290 0 1290 -315 0 -315 0 0 -1291 0 -1290 -542 3 c-299 2 -2115 2 -4035
1 l-3493 -3 0 -315 0 -315 1495 0 1495 0 0 -2035 0 -2035 315 0 315 0 0 2035
0 2035 2225 0 2225 0 0 -2035 0 -2035 500 0 500 0 0 328 -1 327 -184 -189
-185 -189 0 1897 0 1896 196 0 196 0 -4 -2035 -4 -2035 313 0 313 0 0 206 0
206 713 720 c391 396 713 723 715 726 1 4 -96 105 -216 225 l-218 218 -493
-496 c-271 -272 -494 -495 -497 -495 -2 0 -4 621 -4 1380 l0 1380 964 0 964 0
7 427 c4 236 5 677 1 981 -4 303 -4 551 1 550 4 0 136 -131 293 -290 l285
-288 -3 -813 -3 -812 -529 -530 c-292 -292 -530 -535 -530 -540 0 -6 97 -107
215 -225 l215 -215 632 632 631 632 -7 628 -7 628 191 -190 190 -190 0 -597 0
-598 -642 -646 -642 -645 222 -222 222 -222 735 738 736 738 -7 410 c-4 225
-3 409 1 409 5 0 377 -370 826 -823 l818 -822 0 445 1 445 -825 825 -824 825
-1 1033 c0 567 3 1032 7 1032 5 0 113 -105 240 -232 l233 -233 0 445 0 445
-240 240 -240 240 0 2197 c0 1209 3 2198 7 2198 3 0 109 -105 234 -232 l228
-233 0 440 1 439 -235 236 -235 236 0 1262 0 1262 -310 0 -310 0 -1 -792 -2
-793 -79 -75 -79 -75 -107 113 c-59 62 -372 380 -697 707 l-590 595 -5 -437
-6 -438 -4 445 c-2 245 -5 514 -7 598 l-4 152 -592 0 -592 0 283 -283 282
-283 0 -2204 0 -2205 -191 190 c-106 105 -189 182 -185 172 3 -10 6 -213 6
-450 l0 -432 180 -185 179 -185 2 -145 c3 -338 4 -1920 1 -1920 -1 0 -293 290
-647 645 l-645 646 0 789 0 790 150 0 150 0 0 96 0 96 -462 469 -463 470 -5
-248 -5 -248 -90 -3 c-49 -2 -136 0 -192 3 l-103 7 0 441 0 442 -315 315 -315
316 0 -48 0 -48 -115 0 -115 0 0 -70 0 -70 115 0 115 0 0 -640 c0 -352 -1
-640 -2 -641 -2 0 -1356 -3 -3010 -5 l-3008 -5 0 2215 0 2216 -80 0 -80 0 0
-3363z m10055 1868 l287 -295 -3 -2195 c-2 -1207 -6 -2194 -9 -2192 -3 1 -134
133 -292 292 l-288 291 0 2197 c0 1250 4 2197 9 2197 5 0 138 -133 296 -295z
m1275 -337 l0 -63 -32 32 -32 33 29 30 c16 16 30 30 32 30 2 0 3 -28 3 -62z
m0 -3149 l0 -2204 -189 190 -188 190 -2 2205 -2 2205 191 -191 190 -190 0
-2205z m-5150 -803 l0 -725 -1342 -3 c-739 -2 -2093 -5 -3010 -6 l-1668 -2 0
730 0 730 3010 0 3010 0 0 -724z m1020 -1 l0 -725 -195 0 -195 0 0 725 0 725
195 0 195 0 0 -725z m2845 -1005 l290 -290 0 -1030 c0 -567 -2 -1030 -5 -1030
-3 0 -134 129 -293 288 l-287 287 0 1033 c0 567 1 1032 3 1032 2 0 133 -131
292 -290z m-1566 -1391 l646 -651 -1 -977 0 -976 -650 0 -649 1 0 1627 c0 895
2 1627 4 1627 2 0 294 -293 650 -651z m2851 -927 c0 -569 -3 -1032 -7 -1030
-5 2 -89 85 -188 186 l-179 182 -2 1036 -1 1036 189 -189 188 -188 0 -1033z"/>
<path d="M6528 15067 c235 -233 678 -670 985 -972 481 -474 557 -553 557 -578
0 -24 48 -78 307 -343 169 -173 311 -314 315 -314 4 0 8 213 8 474 l0 474
-852 841 -853 840 -447 1 -447 0 427 -423z"/>
<path d="M8393 14793 l697 -697 0 -821 0 -820 314 -320 315 -320 0 1270 1
1270 -567 567 -568 568 -445 0 -445 0 698 -697z"/>
<path d="M15060 11895 c-74 -74 -74 -75 -95 -55 l-20 19 5 -444 5 -444 268
-269 267 -270 0 442 0 441 -205 205 -205 205 75 75 75 76 -48 47 -48 47 -74
-75z"/>
<path d="M0 10745 l0 -315 630 0 630 0 0 315 0 315 -630 0 -630 0 0 -315z"/>
<path d="M8070 8002 l0 -92 85 0 c47 0 85 3 85 8 0 4 -38 45 -85 92 l-85 85 0
-93z"/>
<path d="M14940 6140 l1 -445 274 -280 275 -279 0 449 0 450 -275 275 -275
275 0 -445z"/>
<path d="M9750 2990 l0 -70 120 0 120 0 0 70 0 70 -120 0 -120 0 0 -70z"/>
<path d="M10732 760 l-754 -760 439 0 438 0 540 540 540 540 -220 220 c-121
121 -222 220 -225 220 -3 0 -344 -342 -758 -760z"/>
</g>
</svg>
