<?xml version="1.0" encoding="UTF-8" standalone="no"?>
<!-- Created with Inkscape (http://www.inkscape.org/) -->

<svg
   xmlns:dc="http://purl.org/dc/elements/1.1/"
   xmlns:cc="http://creativecommons.org/ns#"
   xmlns:rdf="http://www.w3.org/1999/02/22-rdf-syntax-ns#"
   xmlns:svg="http://www.w3.org/2000/svg"
   xmlns="http://www.w3.org/2000/svg"
   xmlns:sodipodi="http://sodipodi.sourceforge.net/DTD/sodipodi-0.dtd"
   xmlns:inkscape="http://www.inkscape.org/namespaces/inkscape"
   width="210mm"
   height="297mm"
   viewBox="0 0 744.09448819 1052.3622047"
   id="svg4306"
   version="1.1"
   inkscape:version="0.91 r13725"
   sodipodi:docname="pataphysicalisation.svg">
  <defs
     id="defs4308" />
  <sodipodi:namedview
     id="base"
     pagecolor="#ffffff"
     bordercolor="#666666"
     borderopacity="1.0"
     inkscape:pageopacity="0.0"
     inkscape:pageshadow="2"
     inkscape:zoom="1.979899"
     inkscape:cx="347.59604"
     inkscape:cy="806.45374"
     inkscape:document-units="px"
     inkscape:current-layer="g5132"
     showgrid="false" />
  <metadata
     id="metadata4311">
    <rdf:RDF>
      <cc:Work
         rdf:about="">
        <dc:format>image/svg+xml</dc:format>
        <dc:type
           rdf:resource="http://purl.org/dc/dcmitype/StillImage" />
        <dc:title></dc:title>
      </cc:Work>
    </rdf:RDF>
  </metadata>
  <g
     inkscape:label="Layer 1"
     inkscape:groupmode="layer"
     id="layer1">
    <g
       transform="matrix(1.25,0,0,-1.25,281.24356,207.02122)"
       inkscape:label="architecture"
       id="g4144">
      <g
         id="g4146">
        <g
           transform="matrix(1,0,0,-1,0,99.968956)"
           id="g4148">
          <path
             inkscape:connector-curvature="0"
             id="path4150"
             style="fill:none;stroke:#000000;stroke-width:0.80000001;stroke-linecap:butt;stroke-linejoin:miter;stroke-miterlimit:10;stroke-dasharray:none;stroke-opacity:1"
             d="m 0.398,37.57 64,0 0,24 -64,0 0,-24 z" />
        </g>
        <g
           transform="matrix(1,0,0,-1,0,99.968956)"
           id="g4152">
          <path
             inkscape:connector-curvature="0"
             id="path4154"
             style="fill:none;stroke:#000000;stroke-width:0.80000001;stroke-linecap:butt;stroke-linejoin:miter;stroke-miterlimit:10;stroke-dasharray:none;stroke-opacity:1"
             d="m 0.398,75.57 64,0 0,24 -64,0 0,-24 z" />
        </g>
        <g
           transform="matrix(1,0,0,-1,0,99.968956)"
           id="g4156">
          <path
             inkscape:connector-curvature="0"
             id="path4158"
             style="fill:none;stroke:#000000;stroke-width:0.80000001;stroke-linecap:butt;stroke-linejoin:miter;stroke-miterlimit:10;stroke-dasharray:none;stroke-opacity:1"
             d="m 81.406,37.57 64,0 0,24 -64,0 0,-24 z" />
        </g>
        <g
           transform="matrix(1,0,0,-1,0,99.968956)"
           id="g4160">
          <path
             inkscape:connector-curvature="0"
             id="path4162"
             style="fill:none;stroke:#000000;stroke-width:0.80000001;stroke-linecap:butt;stroke-linejoin:miter;stroke-miterlimit:10;stroke-dasharray:none;stroke-opacity:1"
             d="m 81.406,75.57 64,0 0,24 -64,0 0,-24 z" />
        </g>
        <g
           transform="matrix(1,0,0,-1,0,99.968956)"
           id="g4164">
          <path
             inkscape:connector-curvature="0"
             id="path4166"
             style="fill:none;stroke:#000000;stroke-width:0.80000001;stroke-linecap:butt;stroke-linejoin:miter;stroke-miterlimit:10;stroke-dasharray:none;stroke-opacity:1"
             d="m 0.398,0.398 64,0 0,24 -64,0 0,-24 z" />
        </g>
        <g
           transform="matrix(1,0,0,-1,0,99.968956)"
           id="g4168">
          <path
             inkscape:connector-curvature="0"
             id="path4170"
             style="fill:none;stroke:#000000;stroke-width:0.80000001;stroke-linecap:butt;stroke-linejoin:miter;stroke-miterlimit:10;stroke-dasharray:none;stroke-opacity:1"
             d="m 81.406,0.398 64,0 0,24 -64,0 0,-24 z" />
        </g>
      </g>
      <g
         transform="translate(-0.0711788,-1.2978577)"
         id="g4180"
         inkscape:label="architecture">
        <g
           transform="translate(0.23302787,1.1651394)"
           id="g4182">
          <g
             id="g4184"
             transform="matrix(1,0,0,-1,0,99.968956)">
            <path
               d="m 32.398,24.398 0,11.5"
               style="fill:none;stroke:#000000;stroke-width:0.74758101;stroke-linecap:butt;stroke-linejoin:miter;stroke-miterlimit:4;stroke-dasharray:none;stroke-opacity:1"
               id="path4186"
               inkscape:connector-curvature="0" />
          </g>
          <g
             id="g4188"
             transform="matrix(0,1,1,0,0,99.968956)">
            <path
               d="m -31.988,34.211 -4.903,-1.805 4.903,-1.801 c -0.785,1.063 -0.782,2.52 0,3.606 z"
               style="fill:#000000;fill-opacity:1;fill-rule:evenodd;stroke:#000000;stroke-width:0.280343;stroke-linecap:butt;stroke-linejoin:round;stroke-miterlimit:4;stroke-dasharray:none;stroke-opacity:1"
               id="path4190"
               inkscape:connector-curvature="0" />
          </g>
          <g
             id="g4192"
             transform="matrix(1,0,0,-1,0,99.968956)">
            <path
               d="m 32.398,61.57 0,12.321"
               style="fill:none;stroke:#000000;stroke-width:0.75051099;stroke-linecap:butt;stroke-linejoin:miter;stroke-miterlimit:4;stroke-dasharray:none;stroke-opacity:1"
               id="path4194"
               inkscape:connector-curvature="0" />
          </g>
          <g
             id="g4196"
             transform="matrix(0,1,1,0,0,99.968956)">
            <path
               d="m -69.965,34.215 -4.918,-1.809 4.918,-1.808 c -0.785,1.07 -0.781,2.531 0,3.617 z"
               style="fill:#000000;fill-opacity:1;fill-rule:evenodd;stroke:#000000;stroke-width:0.28144199;stroke-linecap:butt;stroke-linejoin:round;stroke-miterlimit:4;stroke-dasharray:none;stroke-opacity:1"
               id="path4198"
               inkscape:connector-curvature="0" />
          </g>
          <g
             id="g4200"
             transform="matrix(1,0,0,-1,0,99.968956)">
            <path
               d="m 64.398,87.57 15.305,0"
               style="fill:none;stroke:#000000;stroke-width:0.75888002;stroke-linecap:butt;stroke-linejoin:miter;stroke-miterlimit:4;stroke-dasharray:none;stroke-opacity:1"
               id="path4202"
               inkscape:connector-curvature="0" />
          </g>
          <g
             id="g4204"
             transform="matrix(-1,0,0,1,0,99.968956)">
            <path
               d="m -75.73,-85.73 -4.977,-1.833 4.977,-1.828 c -0.797,1.078 -0.793,2.559 0,3.661 z"
               style="fill:#000000;fill-opacity:1;fill-rule:evenodd;stroke:#000000;stroke-width:0.28457999;stroke-linecap:butt;stroke-linejoin:round;stroke-miterlimit:4;stroke-dasharray:none;stroke-opacity:1"
               id="path4206"
               inkscape:connector-curvature="0" />
          </g>
          <g
             id="g4208"
             transform="matrix(1,0,0,-1,0,99.968956)">
            <path
               d="m 114.73,24.398 0,11.5"
               style="fill:none;stroke:#000000;stroke-width:0.747572;stroke-linecap:butt;stroke-linejoin:miter;stroke-miterlimit:4;stroke-dasharray:none;stroke-opacity:1"
               id="path4210"
               inkscape:connector-curvature="0" />
          </g>
          <g
             id="g4212"
             transform="matrix(0,1,1,0,0,99.968956)">
            <path
               d="m -31.988,116.543 -4.903,-1.805 4.903,-1.8 c -0.785,1.062 -0.782,2.519 0,3.605 z"
               style="fill:#000000;fill-opacity:1;fill-rule:evenodd;stroke:#000000;stroke-width:0.28033999;stroke-linecap:butt;stroke-linejoin:round;stroke-miterlimit:4;stroke-dasharray:none;stroke-opacity:1"
               id="path4214"
               inkscape:connector-curvature="0" />
          </g>
          <g
             id="g4216"
             transform="matrix(1,0,0,-1,0,99.968956)">
            <path
               d="m 80.879,51.641 -8,0"
               style="fill:none;stroke:#000000;stroke-width:0.80000001;stroke-linecap:butt;stroke-linejoin:miter;stroke-miterlimit:4;stroke-dasharray:none;stroke-opacity:1"
               id="path4218"
               inkscape:connector-curvature="0" />
          </g>
          <g
             id="g4220"
             transform="matrix(1,0,0,-1,0,99.968956)">
            <path
               d="m 73.043,79.641 -6.746,0"
               style="fill:none;stroke:#000000;stroke-width:0.734712;stroke-linecap:butt;stroke-linejoin:miter;stroke-miterlimit:4;stroke-dasharray:none;stroke-opacity:1"
               id="path4222"
               inkscape:connector-curvature="0" />
          </g>
          <g
             id="g4224"
             transform="matrix(1,0,0,-1,0,99.968956)">
            <path
               d="m 69.234,79.641 1.469,-1.469 -5.14,1.469 5.14,1.468 -1.469,-1.468 z"
               style="fill:#000000;fill-opacity:1;fill-rule:evenodd;stroke:#000000;stroke-width:0.367356;stroke-linecap:butt;stroke-linejoin:miter;stroke-miterlimit:4;stroke-dasharray:none;stroke-opacity:1"
               id="path4226"
               inkscape:connector-curvature="0" />
          </g>
          <g
             id="g4228"
             transform="matrix(1,0,0,-1,0,99.968956)">
            <path
               d="m 72.879,79.641 0,-28.168"
               style="fill:none;stroke:#000000;stroke-width:0.80236697;stroke-linecap:butt;stroke-linejoin:miter;stroke-miterlimit:4;stroke-dasharray:none;stroke-opacity:1"
               id="path4230"
               inkscape:connector-curvature="0" />
          </g>
          <g
             id="g4232"
             transform="matrix(1,0,0,-1,0,99.968956)">
            <path
               d="m 144.879,87.641 8,0"
               style="fill:none;stroke:#000000;stroke-width:0.80000001;stroke-linecap:butt;stroke-linejoin:miter;stroke-miterlimit:4;stroke-dasharray:none;stroke-opacity:1"
               id="path4234"
               inkscape:connector-curvature="0" />
          </g>
          <g
             id="g4236"
             transform="matrix(1,0,0,-1,0,99.968956)">
            <path
               d="m 152.879,11.641 0,76"
               style="fill:none;stroke:#000000;stroke-width:0.80000001;stroke-linecap:butt;stroke-linejoin:miter;stroke-miterlimit:4;stroke-dasharray:none;stroke-opacity:1"
               id="path4238"
               inkscape:connector-curvature="0" />
          </g>
          <g
             id="g4240"
             transform="matrix(1,0,0,-1,0,99.968956)">
            <path
               d="m 147.098,11.641 5.781,0"
               style="fill:none;stroke:#000000;stroke-width:0.67998701;stroke-linecap:butt;stroke-linejoin:miter;stroke-miterlimit:4;stroke-dasharray:none;stroke-opacity:1"
               id="path4242"
               inkscape:connector-curvature="0" />
          </g>
          <g
             id="g4244"
             transform="matrix(1,0,0,-1,0,99.968956)">
            <path
               d="m 149.816,11.641 1.36,-1.36 -4.758,1.36 4.758,1.359 -1.36,-1.359 z"
               style="fill:#000000;fill-opacity:1;fill-rule:evenodd;stroke:#000000;stroke-width:0.33999401;stroke-linecap:butt;stroke-linejoin:miter;stroke-miterlimit:4;stroke-dasharray:none;stroke-opacity:1"
               id="path4246"
               inkscape:connector-curvature="0" />
          </g>
        </g>
        <text
           transform="scale(1,-1)"
           sodipodi:linespacing="125%"
           id="text4282"
           y="-85.187897"
           x="20.581915"
           style="font-style:normal;font-variant:normal;font-weight:normal;font-stretch:normal;font-size:12px;line-height:125%;font-family:sans-serif;-inkscape-font-specification:'sans-serif, Normal';text-align:start;letter-spacing:0px;word-spacing:0px;writing-mode:lr-tb;text-anchor:start;fill:#000000;fill-opacity:1;stroke:none;stroke-width:1px;stroke-linecap:butt;stroke-linejoin:miter;stroke-opacity:1"
           xml:space="preserve"><tspan
             y="-85.187897"
             x="20.581915"
             id="tspan4284"
             sodipodi:role="line">Web</tspan></text>
        <text
           transform="scale(1,-1)"
           sodipodi:linespacing="125%"
           id="text4286"
           y="-47.963413"
           x="10.207891"
           style="font-style:normal;font-variant:normal;font-weight:normal;font-stretch:normal;font-size:12px;line-height:125%;font-family:sans-serif;-inkscape-font-specification:'sans-serif, Normal';text-align:start;letter-spacing:0px;word-spacing:0px;writing-mode:lr-tb;text-anchor:start;fill:#000000;fill-opacity:1;stroke:none;stroke-width:1px;stroke-linecap:butt;stroke-linejoin:miter;stroke-opacity:1"
           xml:space="preserve"><tspan
             y="-47.963413"
             x="10.207891"
             id="tspan4288"
             sodipodi:role="line">Crawler</tspan></text>
        <text
           transform="scale(1,-1)"
           sodipodi:linespacing="125%"
           id="text4290"
           y="-8.6549397"
           x="16.067266"
           style="font-style:normal;font-variant:normal;font-weight:normal;font-stretch:normal;font-size:12px;line-height:125%;font-family:sans-serif;-inkscape-font-specification:'sans-serif, Normal';text-align:start;letter-spacing:0px;word-spacing:0px;writing-mode:lr-tb;text-anchor:start;fill:#000000;fill-opacity:1;stroke:none;stroke-width:1px;stroke-linecap:butt;stroke-linejoin:miter;stroke-opacity:1"
           xml:space="preserve"><tspan
             y="-8.6549397"
             x="16.067266"
             id="tspan4292"
             sodipodi:role="line">Index</tspan></text>
        <text
           transform="scale(1,-1)"
           sodipodi:linespacing="125%"
           id="text4298"
           y="-49.185093"
           x="95.870522"
           style="font-style:normal;font-variant:normal;font-weight:normal;font-stretch:normal;font-size:12px;line-height:125%;font-family:sans-serif;-inkscape-font-specification:'sans-serif, Normal';text-align:start;letter-spacing:0px;word-spacing:0px;writing-mode:lr-tb;text-anchor:start;fill:#000000;fill-opacity:1;stroke:none;stroke-width:1px;stroke-linecap:butt;stroke-linejoin:miter;stroke-opacity:1"
           xml:space="preserve"><tspan
             y="-49.185093"
             x="95.870522"
             id="tspan4300"
             sodipodi:role="line">Query</tspan></text>
        <text
           transform="scale(1,-1)"
           sodipodi:linespacing="125%"
           id="text4302"
           y="-85.384186"
           x="100.03654"
           style="font-style:normal;font-variant:normal;font-weight:normal;font-stretch:normal;font-size:12px;line-height:125%;font-family:sans-serif;-inkscape-font-specification:'sans-serif, Normal';text-align:start;letter-spacing:0px;word-spacing:0px;writing-mode:lr-tb;text-anchor:start;fill:#000000;fill-opacity:1;stroke:none;stroke-width:1px;stroke-linecap:butt;stroke-linejoin:miter;stroke-opacity:1"
           xml:space="preserve"><tspan
             y="-85.384186"
             x="100.03654"
             id="tspan4304"
             sodipodi:role="line">User</tspan></text>
      </g>
    </g>
    <g
       id="g4984"
       inkscape:label="architecture"
       transform="matrix(1.25,0,0,-1.25,71.957834,203.44979)">
      <g
         id="g5224"
         transform="translate(2.8254917e-6,0)">
        <g
           transform="translate(0,-2.857144)"
           id="g4986">
          <g
             transform="matrix(1,0,0,-1,0,99.968956)"
             id="g4988">
            <path
               inkscape:connector-curvature="0"
               id="path4990"
               style="fill:none;stroke:#000000;stroke-width:0.80000001;stroke-linecap:butt;stroke-linejoin:miter;stroke-miterlimit:10;stroke-dasharray:none;stroke-opacity:1"
               d="m 0.398,37.57 64,0 0,24 -64,0 0,-24 z" />
          </g>
          <g
             transform="matrix(1,0,0,-1,0,99.968956)"
             id="g4992">
            <path
               inkscape:connector-curvature="0"
               id="path4994"
               style="fill:none;stroke:#000000;stroke-width:0.80000001;stroke-linecap:butt;stroke-linejoin:miter;stroke-miterlimit:10;stroke-dasharray:none;stroke-opacity:1"
               d="m 0.398,75.57 64,0 0,24 -64,0 0,-24 z" />
          </g>
          <g
             transform="matrix(1,0,0,-1,0,99.968956)"
             id="g4996">
            <path
               inkscape:connector-curvature="0"
               id="path4998"
               style="fill:none;stroke:#000000;stroke-width:0.80000001;stroke-linecap:butt;stroke-linejoin:miter;stroke-miterlimit:10;stroke-dasharray:none;stroke-opacity:1"
               d="m 81.406,37.57 64,0 0,24 -64,0 0,-24 z" />
          </g>
          <g
             transform="matrix(1,0,0,-1,0,99.968956)"
             id="g5000">
            <path
               inkscape:connector-curvature="0"
               id="path5002"
               style="fill:none;stroke:#000000;stroke-width:0.80000001;stroke-linecap:butt;stroke-linejoin:miter;stroke-miterlimit:10;stroke-dasharray:none;stroke-opacity:1"
               d="m 81.406,75.57 64,0 0,24 -64,0 0,-24 z" />
          </g>
          <g
             transform="matrix(1,0,0,-1,0,99.968956)"
             id="g5004">
            <path
               inkscape:connector-curvature="0"
               id="path5006"
               style="fill:none;stroke:#000000;stroke-width:0.80000001;stroke-linecap:butt;stroke-linejoin:miter;stroke-miterlimit:10;stroke-dasharray:none;stroke-opacity:1"
               d="m 0.398,0.398 64,0 0,24 -64,0 0,-24 z" />
          </g>
          <g
             transform="matrix(1,0,0,-1,0,99.968956)"
             id="g5008">
            <path
               inkscape:connector-curvature="0"
               id="path5010"
               style="fill:none;stroke:#000000;stroke-width:0.80000001;stroke-linecap:butt;stroke-linejoin:miter;stroke-miterlimit:10;stroke-dasharray:none;stroke-opacity:1"
               d="m 81.406,0.398 64,0 0,24 -64,0 0,-24 z" />
          </g>
        </g>
        <g
           transform="translate(-0.0711788,-3.6871609)"
           id="g5012"
           inkscape:label="architecture">
          <g
             transform="translate(0.23302787,1.1651394)"
             id="g5014">
            <g
               id="g5016"
               transform="matrix(1,0,0,-1,0,99.968956)">
              <path
                 d="m 32.398,24.398 0,11.5"
                 style="fill:none;stroke:#000000;stroke-width:0.74758101;stroke-linecap:butt;stroke-linejoin:miter;stroke-miterlimit:4;stroke-dasharray:none;stroke-opacity:1"
                 id="path5018"
                 inkscape:connector-curvature="0" />
            </g>
            <g
               id="g5020"
               transform="matrix(0,1,1,0,0,99.968956)">
              <path
                 d="m -31.988,34.211 -4.903,-1.805 4.903,-1.801 c -0.785,1.063 -0.782,2.52 0,3.606 z"
                 style="fill:#000000;fill-opacity:1;fill-rule:evenodd;stroke:#000000;stroke-width:0.280343;stroke-linecap:butt;stroke-linejoin:round;stroke-miterlimit:4;stroke-dasharray:none;stroke-opacity:1"
                 id="path5022"
                 inkscape:connector-curvature="0" />
            </g>
            <g
               id="g5024"
               transform="matrix(1,0,0,-1,0,99.968956)">
              <path
                 d="m 32.398,61.57 0,12.321"
                 style="fill:none;stroke:#000000;stroke-width:0.75051099;stroke-linecap:butt;stroke-linejoin:miter;stroke-miterlimit:4;stroke-dasharray:none;stroke-opacity:1"
                 id="path5026"
                 inkscape:connector-curvature="0" />
            </g>
            <g
               id="g5028"
               transform="matrix(0,1,1,0,0,99.968956)">
              <path
                 d="m -69.965,34.215 -4.918,-1.809 4.918,-1.808 c -0.785,1.07 -0.781,2.531 0,3.617 z"
                 style="fill:#000000;fill-opacity:1;fill-rule:evenodd;stroke:#000000;stroke-width:0.28144199;stroke-linecap:butt;stroke-linejoin:round;stroke-miterlimit:4;stroke-dasharray:none;stroke-opacity:1"
                 id="path5030"
                 inkscape:connector-curvature="0" />
            </g>
            <g
               id="g5032"
               transform="matrix(1,0,0,-1,0,99.968956)">
              <path
                 d="m 64.398,87.57 15.305,0"
                 style="fill:none;stroke:#000000;stroke-width:0.75888002;stroke-linecap:butt;stroke-linejoin:miter;stroke-miterlimit:4;stroke-dasharray:none;stroke-opacity:1"
                 id="path5034"
                 inkscape:connector-curvature="0" />
            </g>
            <g
               id="g5036"
               transform="matrix(-1,0,0,1,0,99.968956)">
              <path
                 d="m -75.73,-85.73 -4.977,-1.833 4.977,-1.828 c -0.797,1.078 -0.793,2.559 0,3.661 z"
                 style="fill:#000000;fill-opacity:1;fill-rule:evenodd;stroke:#000000;stroke-width:0.28457999;stroke-linecap:butt;stroke-linejoin:round;stroke-miterlimit:4;stroke-dasharray:none;stroke-opacity:1"
                 id="path5038"
                 inkscape:connector-curvature="0" />
            </g>
            <g
               id="g5040"
               transform="matrix(1,0,0,-1,0,99.968956)">
              <path
                 d="m 114.73,24.398 0,11.5"
                 style="fill:none;stroke:#000000;stroke-width:0.747572;stroke-linecap:butt;stroke-linejoin:miter;stroke-miterlimit:4;stroke-dasharray:none;stroke-opacity:1"
                 id="path5042"
                 inkscape:connector-curvature="0" />
            </g>
            <g
               id="g5044"
               transform="matrix(0,1,1,0,0,99.968956)">
              <path
                 d="m -31.988,116.543 -4.903,-1.805 4.903,-1.8 c -0.785,1.062 -0.782,2.519 0,3.605 z"
                 style="fill:#000000;fill-opacity:1;fill-rule:evenodd;stroke:#000000;stroke-width:0.28033999;stroke-linecap:butt;stroke-linejoin:round;stroke-miterlimit:4;stroke-dasharray:none;stroke-opacity:1"
                 id="path5046"
                 inkscape:connector-curvature="0" />
            </g>
            <g
               id="g5048"
               transform="matrix(1,0,0,-1,0,99.968956)">
              <path
                 d="m 80.879,51.641 -8,0"
                 style="fill:none;stroke:#000000;stroke-width:0.80000001;stroke-linecap:butt;stroke-linejoin:miter;stroke-miterlimit:4;stroke-dasharray:none;stroke-opacity:1"
                 id="path5050"
                 inkscape:connector-curvature="0" />
            </g>
            <g
               id="g5052"
               transform="matrix(1,0,0,-1,0,99.968956)">
              <path
                 d="m 73.043,79.641 -6.746,0"
                 style="fill:none;stroke:#000000;stroke-width:0.734712;stroke-linecap:butt;stroke-linejoin:miter;stroke-miterlimit:4;stroke-dasharray:none;stroke-opacity:1"
                 id="path5054"
                 inkscape:connector-curvature="0" />
            </g>
            <g
               id="g5056"
               transform="matrix(1,0,0,-1,0,99.968956)">
              <path
                 d="m 69.234,79.641 1.469,-1.469 -5.14,1.469 5.14,1.468 -1.469,-1.468 z"
                 style="fill:#000000;fill-opacity:1;fill-rule:evenodd;stroke:#000000;stroke-width:0.367356;stroke-linecap:butt;stroke-linejoin:miter;stroke-miterlimit:4;stroke-dasharray:none;stroke-opacity:1"
                 id="path5058"
                 inkscape:connector-curvature="0" />
            </g>
            <g
               id="g5060"
               transform="matrix(1,0,0,-1,0,99.968956)">
              <path
                 d="m 72.879,79.641 0,-28.168"
                 style="fill:none;stroke:#000000;stroke-width:0.80236697;stroke-linecap:butt;stroke-linejoin:miter;stroke-miterlimit:4;stroke-dasharray:none;stroke-opacity:1"
                 id="path5062"
                 inkscape:connector-curvature="0" />
            </g>
            <g
               id="g5064"
               transform="matrix(1,0,0,-1,0,99.968956)">
              <path
                 d="m 144.879,87.641 8,0"
                 style="fill:none;stroke:#000000;stroke-width:0.80000001;stroke-linecap:butt;stroke-linejoin:miter;stroke-miterlimit:4;stroke-dasharray:none;stroke-opacity:1"
                 id="path5066"
                 inkscape:connector-curvature="0" />
            </g>
            <g
               id="g5068"
               transform="matrix(1,0,0,-1,0,99.968956)">
              <path
                 d="m 152.879,11.641 0,76"
                 style="fill:none;stroke:#000000;stroke-width:0.80000001;stroke-linecap:butt;stroke-linejoin:miter;stroke-miterlimit:4;stroke-dasharray:none;stroke-opacity:1"
                 id="path5070"
                 inkscape:connector-curvature="0" />
            </g>
            <g
               id="g5072"
               transform="matrix(1,0,0,-1,0,99.968956)">
              <path
                 d="m 147.098,11.641 5.781,0"
                 style="fill:none;stroke:#000000;stroke-width:0.67998701;stroke-linecap:butt;stroke-linejoin:miter;stroke-miterlimit:4;stroke-dasharray:none;stroke-opacity:1"
                 id="path5074"
                 inkscape:connector-curvature="0" />
            </g>
            <g
               id="g5076"
               transform="matrix(1,0,0,-1,0,99.968956)">
              <path
                 d="m 149.816,11.641 1.36,-1.36 -4.758,1.36 4.758,1.359 -1.36,-1.359 z"
                 style="fill:#000000;fill-opacity:1;fill-rule:evenodd;stroke:#000000;stroke-width:0.33999401;stroke-linecap:butt;stroke-linejoin:miter;stroke-miterlimit:4;stroke-dasharray:none;stroke-opacity:1"
                 id="path5078"
                 inkscape:connector-curvature="0" />
            </g>
          </g>
          <text
             transform="scale(1,-1)"
             sodipodi:linespacing="125%"
             id="text5080"
             y="-85.187897"
             x="20.581915"
             style="font-style:normal;font-variant:normal;font-weight:normal;font-stretch:normal;font-size:12px;line-height:125%;font-family:sans-serif;-inkscape-font-specification:'sans-serif, Normal';text-align:start;letter-spacing:0px;word-spacing:0px;writing-mode:lr-tb;text-anchor:start;fill:#000000;fill-opacity:1;stroke:none;stroke-width:1px;stroke-linecap:butt;stroke-linejoin:miter;stroke-opacity:1"
             xml:space="preserve"><tspan
               y="-85.187897"
               x="20.581915"
               id="tspan5082"
               sodipodi:role="line">Web</tspan></text>
          <text
             transform="scale(1,-1)"
             sodipodi:linespacing="125%"
             id="text5084"
             y="-47.963413"
             x="10.207891"
             style="font-style:normal;font-variant:normal;font-weight:normal;font-stretch:normal;font-size:12px;line-height:125%;font-family:sans-serif;-inkscape-font-specification:'sans-serif, Normal';text-align:start;letter-spacing:0px;word-spacing:0px;writing-mode:lr-tb;text-anchor:start;fill:#000000;fill-opacity:1;stroke:none;stroke-width:1px;stroke-linecap:butt;stroke-linejoin:miter;stroke-opacity:1"
             xml:space="preserve"><tspan
               y="-47.963413"
               x="10.207891"
               id="tspan5086"
               sodipodi:role="line">Crawler</tspan></text>
          <text
             transform="scale(1,-1)"
             sodipodi:linespacing="125%"
             id="text5088"
             y="-8.6549397"
             x="16.067266"
             style="font-style:normal;font-variant:normal;font-weight:normal;font-stretch:normal;font-size:12px;line-height:125%;font-family:sans-serif;-inkscape-font-specification:'sans-serif, Normal';text-align:start;letter-spacing:0px;word-spacing:0px;writing-mode:lr-tb;text-anchor:start;fill:#000000;fill-opacity:1;stroke:none;stroke-width:1px;stroke-linecap:butt;stroke-linejoin:miter;stroke-opacity:1"
             xml:space="preserve"><tspan
               y="-8.6549397"
               x="16.067266"
               id="tspan5090"
               sodipodi:role="line">Index</tspan></text>
          <text
             transform="scale(1,-1)"
             sodipodi:linespacing="125%"
             id="text5092"
             y="-9.8033772"
             x="90.019936"
             style="font-style:normal;font-variant:normal;font-weight:normal;font-stretch:normal;font-size:12px;line-height:125%;font-family:sans-serif;-inkscape-font-specification:'sans-serif, Normal';text-align:start;letter-spacing:0px;word-spacing:0px;writing-mode:lr-tb;text-anchor:start;fill:#000000;fill-opacity:1;stroke:none;stroke-width:1px;stroke-linecap:butt;stroke-linejoin:miter;stroke-opacity:1"
             xml:space="preserve"><tspan
               y="-9.8033772"
               x="90.019936"
               id="tspan5094"
               sodipodi:role="line">Ranking</tspan></text>
          <text
             transform="scale(1,-1)"
             sodipodi:linespacing="125%"
             id="text5100"
             y="-85.384186"
             x="100.03654"
             style="font-style:normal;font-variant:normal;font-weight:normal;font-stretch:normal;font-size:12px;line-height:125%;font-family:sans-serif;-inkscape-font-specification:'sans-serif, Normal';text-align:start;letter-spacing:0px;word-spacing:0px;writing-mode:lr-tb;text-anchor:start;fill:#000000;fill-opacity:1;stroke:none;stroke-width:1px;stroke-linecap:butt;stroke-linejoin:miter;stroke-opacity:1"
             xml:space="preserve"><tspan
               y="-85.384186"
               x="100.03654"
               id="tspan5102"
               sodipodi:role="line">User</tspan></text>
        </g>
      </g>
    </g>
    <g
       transform="matrix(1.25,0,0,-1.25,490.52926,207.02122)"
       inkscape:label="architecture"
       id="g5104">
      <g
         id="g5106">
        <g
           transform="matrix(1,0,0,-1,0,99.968956)"
           id="g5108">
          <path
             inkscape:connector-curvature="0"
             id="path5110"
             style="fill:none;stroke:#000000;stroke-width:0.80000001;stroke-linecap:butt;stroke-linejoin:miter;stroke-miterlimit:10;stroke-dasharray:none;stroke-opacity:1"
             d="m 0.398,37.57 64,0 0,24 -64,0 0,-24 z" />
        </g>
        <g
           transform="matrix(1,0,0,-1,0,99.968956)"
           id="g5112">
          <path
             inkscape:connector-curvature="0"
             id="path5114"
             style="fill:none;stroke:#000000;stroke-width:0.80000001;stroke-linecap:butt;stroke-linejoin:miter;stroke-miterlimit:10;stroke-dasharray:none;stroke-opacity:1"
             d="m 0.398,75.57 64,0 0,24 -64,0 0,-24 z" />
        </g>
        <g
           transform="matrix(1,0,0,-1,0,99.968956)"
           id="g5116">
          <path
             inkscape:connector-curvature="0"
             id="path5118"
             style="fill:none;stroke:#000000;stroke-width:0.80000001;stroke-linecap:butt;stroke-linejoin:miter;stroke-miterlimit:10;stroke-dasharray:none;stroke-opacity:1"
             d="m 81.406,37.57 64,0 0,24 -64,0 0,-24 z" />
        </g>
        <g
           transform="matrix(1,0,0,-1,0,99.968956)"
           id="g5120">
          <path
             inkscape:connector-curvature="0"
             id="path5122"
             style="fill:none;stroke:#000000;stroke-width:0.80000001;stroke-linecap:butt;stroke-linejoin:miter;stroke-miterlimit:10;stroke-dasharray:none;stroke-opacity:1"
             d="m 81.406,75.57 64,0 0,24 -64,0 0,-24 z" />
        </g>
        <g
           transform="matrix(1,0,0,-1,0,99.968956)"
           id="g5124">
          <path
             inkscape:connector-curvature="0"
             id="path5126"
             style="fill:none;stroke:#000000;stroke-width:0.80000001;stroke-linecap:butt;stroke-linejoin:miter;stroke-miterlimit:10;stroke-dasharray:none;stroke-opacity:1"
             d="m 0.398,0.398 64,0 0,24 -64,0 0,-24 z" />
        </g>
        <g
           transform="matrix(1,0,0,-1,0,99.968956)"
           id="g5128">
          <path
             inkscape:connector-curvature="0"
             id="path5130"
             style="fill:none;stroke:#000000;stroke-width:0.80000001;stroke-linecap:butt;stroke-linejoin:miter;stroke-miterlimit:10;stroke-dasharray:none;stroke-opacity:1"
             d="m 81.406,0.398 64,0 0,24 -64,0 0,-24 z" />
        </g>
      </g>
      <g
         transform="translate(-0.0711788,-1.2978577)"
         id="g5132"
         inkscape:label="architecture">
        <g
           transform="translate(0.23302787,1.1651394)"
           id="g5134">
          <g
             id="g5136"
             transform="matrix(1,0,0,-1,0,99.968956)">
            <path
               d="m 32.398,24.398 0,11.5"
               style="fill:none;stroke:#000000;stroke-width:0.74758101;stroke-linecap:butt;stroke-linejoin:miter;stroke-miterlimit:4;stroke-dasharray:none;stroke-opacity:1"
               id="path5138"
               inkscape:connector-curvature="0" />
          </g>
          <g
             id="g5140"
             transform="matrix(0,1,1,0,0,99.968956)">
            <path
               d="m -31.988,34.211 -4.903,-1.805 4.903,-1.801 c -0.785,1.063 -0.782,2.52 0,3.606 z"
               style="fill:#000000;fill-opacity:1;fill-rule:evenodd;stroke:#000000;stroke-width:0.280343;stroke-linecap:butt;stroke-linejoin:round;stroke-miterlimit:4;stroke-dasharray:none;stroke-opacity:1"
               id="path5142"
               inkscape:connector-curvature="0" />
          </g>
          <g
             id="g5144"
             transform="matrix(1,0,0,-1,0,99.968956)">
            <path
               d="m 32.398,61.57 0,12.321"
               style="fill:none;stroke:#000000;stroke-width:0.75051099;stroke-linecap:butt;stroke-linejoin:miter;stroke-miterlimit:4;stroke-dasharray:none;stroke-opacity:1"
               id="path5146"
               inkscape:connector-curvature="0" />
          </g>
          <g
             id="g5148"
             transform="matrix(0,1,1,0,0,99.968956)">
            <path
               d="m -69.965,34.215 -4.918,-1.809 4.918,-1.808 c -0.785,1.07 -0.781,2.531 0,3.617 z"
               style="fill:#000000;fill-opacity:1;fill-rule:evenodd;stroke:#000000;stroke-width:0.28144199;stroke-linecap:butt;stroke-linejoin:round;stroke-miterlimit:4;stroke-dasharray:none;stroke-opacity:1"
               id="path5150"
               inkscape:connector-curvature="0" />
          </g>
          <g
             id="g5152"
             transform="matrix(1,0,0,-1,0,99.968956)">
            <path
               d="m 64.398,87.57 15.305,0"
               style="fill:none;stroke:#000000;stroke-width:0.75888002;stroke-linecap:butt;stroke-linejoin:miter;stroke-miterlimit:4;stroke-dasharray:none;stroke-opacity:1"
               id="path5154"
               inkscape:connector-curvature="0" />
          </g>
          <g
             id="g5156"
             transform="matrix(-1,0,0,1,0,99.968956)">
            <path
               d="m -75.73,-85.73 -4.977,-1.833 4.977,-1.828 c -0.797,1.078 -0.793,2.559 0,3.661 z"
               style="fill:#000000;fill-opacity:1;fill-rule:evenodd;stroke:#000000;stroke-width:0.28457999;stroke-linecap:butt;stroke-linejoin:round;stroke-miterlimit:4;stroke-dasharray:none;stroke-opacity:1"
               id="path5158"
               inkscape:connector-curvature="0" />
          </g>
          <g
             id="g5160"
             transform="matrix(1,0,0,-1,0,99.968956)">
            <path
               d="m 114.73,24.398 0,11.5"
               style="fill:none;stroke:#000000;stroke-width:0.747572;stroke-linecap:butt;stroke-linejoin:miter;stroke-miterlimit:4;stroke-dasharray:none;stroke-opacity:1"
               id="path5162"
               inkscape:connector-curvature="0" />
          </g>
          <g
             id="g5164"
             transform="matrix(0,1,1,0,0,99.968956)">
            <path
               d="m -31.988,116.543 -4.903,-1.805 4.903,-1.8 c -0.785,1.062 -0.782,2.519 0,3.605 z"
               style="fill:#000000;fill-opacity:1;fill-rule:evenodd;stroke:#000000;stroke-width:0.28033999;stroke-linecap:butt;stroke-linejoin:round;stroke-miterlimit:4;stroke-dasharray:none;stroke-opacity:1"
               id="path5166"
               inkscape:connector-curvature="0" />
          </g>
          <g
             id="g5168"
             transform="matrix(1,0,0,-1,0,99.968956)">
            <path
               d="m 80.879,51.641 -8,0"
               style="fill:none;stroke:#000000;stroke-width:0.80000001;stroke-linecap:butt;stroke-linejoin:miter;stroke-miterlimit:4;stroke-dasharray:none;stroke-opacity:1"
               id="path5170"
               inkscape:connector-curvature="0" />
          </g>
          <g
             id="g5172"
             transform="matrix(1,0,0,-1,0,99.968956)">
            <path
               d="m 73.043,79.641 -6.746,0"
               style="fill:none;stroke:#000000;stroke-width:0.734712;stroke-linecap:butt;stroke-linejoin:miter;stroke-miterlimit:4;stroke-dasharray:none;stroke-opacity:1"
               id="path5174"
               inkscape:connector-curvature="0" />
          </g>
          <g
             id="g5176"
             transform="matrix(1,0,0,-1,0,99.968956)">
            <path
               d="m 69.234,79.641 1.469,-1.469 -5.14,1.469 5.14,1.468 -1.469,-1.468 z"
               style="fill:#000000;fill-opacity:1;fill-rule:evenodd;stroke:#000000;stroke-width:0.367356;stroke-linecap:butt;stroke-linejoin:miter;stroke-miterlimit:4;stroke-dasharray:none;stroke-opacity:1"
               id="path5178"
               inkscape:connector-curvature="0" />
          </g>
          <g
             id="g5180"
             transform="matrix(1,0,0,-1,0,99.968956)">
            <path
               d="m 72.879,79.641 0,-28.168"
               style="fill:none;stroke:#000000;stroke-width:0.80236697;stroke-linecap:butt;stroke-linejoin:miter;stroke-miterlimit:4;stroke-dasharray:none;stroke-opacity:1"
               id="path5182"
               inkscape:connector-curvature="0" />
          </g>
          <g
             id="g5184"
             transform="matrix(1,0,0,-1,0,99.968956)">
            <path
               d="m 144.879,87.641 8,0"
               style="fill:none;stroke:#000000;stroke-width:0.80000001;stroke-linecap:butt;stroke-linejoin:miter;stroke-miterlimit:4;stroke-dasharray:none;stroke-opacity:1"
               id="path5186"
               inkscape:connector-curvature="0" />
          </g>
          <g
             id="g5188"
             transform="matrix(1,0,0,-1,0,99.968956)">
            <path
               d="m 152.879,11.641 0,76"
               style="fill:none;stroke:#000000;stroke-width:0.80000001;stroke-linecap:butt;stroke-linejoin:miter;stroke-miterlimit:4;stroke-dasharray:none;stroke-opacity:1"
               id="path5190"
               inkscape:connector-curvature="0" />
          </g>
          <g
             id="g5192"
             transform="matrix(1,0,0,-1,0,99.968956)">
            <path
               d="m 147.098,11.641 5.781,0"
               style="fill:none;stroke:#000000;stroke-width:0.67998701;stroke-linecap:butt;stroke-linejoin:miter;stroke-miterlimit:4;stroke-dasharray:none;stroke-opacity:1"
               id="path5194"
               inkscape:connector-curvature="0" />
          </g>
          <g
             id="g5196"
             transform="matrix(1,0,0,-1,0,99.968956)">
            <path
               d="m 149.816,11.641 1.36,-1.36 -4.758,1.36 4.758,1.359 -1.36,-1.359 z"
               style="fill:#000000;fill-opacity:1;fill-rule:evenodd;stroke:#000000;stroke-width:0.33999401;stroke-linecap:butt;stroke-linejoin:miter;stroke-miterlimit:4;stroke-dasharray:none;stroke-opacity:1"
               id="path5198"
               inkscape:connector-curvature="0" />
          </g>
        </g>
        <text
           transform="scale(1,-1)"
           sodipodi:linespacing="125%"
           id="text5200"
           y="-85.187897"
           x="20.581915"
           style="font-style:normal;font-variant:normal;font-weight:normal;font-stretch:normal;font-size:12px;line-height:125%;font-family:sans-serif;-inkscape-font-specification:'sans-serif, Normal';text-align:start;letter-spacing:0px;word-spacing:0px;writing-mode:lr-tb;text-anchor:start;fill:#000000;fill-opacity:1;stroke:none;stroke-width:1px;stroke-linecap:butt;stroke-linejoin:miter;stroke-opacity:1"
           xml:space="preserve"><tspan
             y="-85.187897"
             x="20.581915"
             id="tspan5202"
             sodipodi:role="line">Web</tspan></text>
        <text
           transform="scale(1,-1)"
           sodipodi:linespacing="125%"
           id="text5204"
           y="-47.963413"
           x="10.207891"
           style="font-style:normal;font-variant:normal;font-weight:normal;font-stretch:normal;font-size:12px;line-height:125%;font-family:sans-serif;-inkscape-font-specification:'sans-serif, Normal';text-align:start;letter-spacing:0px;word-spacing:0px;writing-mode:lr-tb;text-anchor:start;fill:#000000;fill-opacity:1;stroke:none;stroke-width:1px;stroke-linecap:butt;stroke-linejoin:miter;stroke-opacity:1"
           xml:space="preserve"><tspan
             y="-47.963413"
             x="10.207891"
             id="tspan5206"
             sodipodi:role="line">Crawler</tspan></text>
        <text
           transform="scale(1,-1)"
           sodipodi:linespacing="125%"
           id="text5212"
           y="-9.8033772"
           x="90.019936"
           style="font-style:normal;font-variant:normal;font-weight:normal;font-stretch:normal;font-size:12px;line-height:125%;font-family:sans-serif;-inkscape-font-specification:'sans-serif, Normal';text-align:start;letter-spacing:0px;word-spacing:0px;writing-mode:lr-tb;text-anchor:start;fill:#000000;fill-opacity:1;stroke:none;stroke-width:1px;stroke-linecap:butt;stroke-linejoin:miter;stroke-opacity:1"
           xml:space="preserve"><tspan
             y="-9.8033772"
             x="90.019936"
             id="tspan5214"
             sodipodi:role="line">Ranking</tspan></text>
        <text
           transform="scale(1,-1)"
           sodipodi:linespacing="125%"
           id="text5216"
           y="-49.185093"
           x="95.870522"
           style="font-style:normal;font-variant:normal;font-weight:normal;font-stretch:normal;font-size:12px;line-height:125%;font-family:sans-serif;-inkscape-font-specification:'sans-serif, Normal';text-align:start;letter-spacing:0px;word-spacing:0px;writing-mode:lr-tb;text-anchor:start;fill:#000000;fill-opacity:1;stroke:none;stroke-width:1px;stroke-linecap:butt;stroke-linejoin:miter;stroke-opacity:1"
           xml:space="preserve"><tspan
             y="-49.185093"
             x="95.870522"
             id="tspan5218"
             sodipodi:role="line">Query</tspan></text>
        <text
           transform="scale(1,-1)"
           sodipodi:linespacing="125%"
           id="text5220"
           y="-85.384186"
           x="100.03654"
           style="font-style:normal;font-variant:normal;font-weight:normal;font-stretch:normal;font-size:12px;line-height:125%;font-family:sans-serif;-inkscape-font-specification:'sans-serif, Normal';text-align:start;letter-spacing:0px;word-spacing:0px;writing-mode:lr-tb;text-anchor:start;fill:#000000;fill-opacity:1;stroke:none;stroke-width:1px;stroke-linecap:butt;stroke-linejoin:miter;stroke-opacity:1"
           xml:space="preserve"><tspan
             y="-85.384186"
             x="100.03654"
             id="tspan5222"
             sodipodi:role="line">User</tspan></text>
        <path
           sodipodi:type="spiral"
           style="fill:none;fill-rule:evenodd;stroke:#000000;stroke-width:0.8;stroke-linecap:butt;stroke-linejoin:miter;stroke-opacity:1;stroke-miterlimit:4;stroke-dasharray:none"
           id="path5285"
           sodipodi:cx="-221.78299"
           sodipodi:cy="-51.911831"
           sodipodi:expansion="1"
           sodipodi:revolution="3"
           sodipodi:radius="11.702291"
           sodipodi:argument="-17.645933"
           sodipodi:t0="0"
           d="m -221.78299,-51.911831 c 0.21063,0.547626 -0.63427,0.554098 -0.91019,0.350073 -0.74772,-0.552895 -0.40881,-1.674755 0.21004,-2.170453 1.107,-0.886689 2.71285,-0.334489 3.43072,0.770161 1.0535,1.62112 0.26435,3.767329 -1.33028,4.69098 -2.12539,1.231081 -4.82793,0.196377 -5.95124,-1.890397 -1.41357,-2.625991 -0.1296,-5.891527 2.45051,-7.211505 3.12487,-1.59867 6.95683,-0.06354 8.47177,3.010631 1.78531,3.622803 -0.002,8.02318 -3.57075,9.732032 -4.12017,1.972937 -9.09024,-0.0674 -10.99229,-4.130866 -2.16123,-4.61717 0.13251,-10.157808 4.69098,-12.252558 5.11392,-2.349993 11.22574,0.197471 13.51282,5.251101 2.5391,5.610487 -0.26232,12.29393 -5.81122,14.773084"
           transform="scale(1,-1)" />
        <path
           transform="scale(1,-1)"
           d="m -54.501728,-14.132126 c 0.210625,0.547626 -0.634274,0.554098 -0.91019,0.350073 -0.747717,-0.552895 -0.408815,-1.674755 0.210044,-2.170453 1.106995,-0.886689 2.712846,-0.334489 3.430717,0.770162 1.053503,1.621119 0.264349,3.767328 -1.33028,4.690979 -2.125388,1.2310813 -4.827932,0.196377 -5.951242,-1.890396 -1.413571,-2.625992 -0.129604,-5.891528 2.450514,-7.211506 3.124867,-1.59867 6.956823,-0.06354 8.471768,3.010631 1.785312,3.622803 -0.0021,8.0231798 -3.570748,9.7320319 -4.12017,1.9729374 -9.090246,-0.067398 -10.992295,-4.1308659 -2.16123,-4.61717 0.13251,-10.157808 4.690983,-12.252558 5.113919,-2.349993 11.225733,0.197471 13.512821,5.251101 2.539101,5.610487 -0.262319,12.2939298 -5.811218,14.7730838"
           sodipodi:t0="0"
           sodipodi:argument="-17.645933"
           sodipodi:radius="11.702291"
           sodipodi:revolution="3"
           sodipodi:expansion="1"
           sodipodi:cy="-14.132126"
           sodipodi:cx="-54.501728"
           id="path5287"
           style="fill:none;fill-rule:evenodd;stroke:#000000;stroke-width:0.8;stroke-linecap:butt;stroke-linejoin:miter;stroke-opacity:1;stroke-miterlimit:4;stroke-dasharray:none"
           sodipodi:type="spiral" />
        <path
           sodipodi:type="spiral"
           style="fill:none;fill-rule:evenodd;stroke:#000000;stroke-width:0.8;stroke-linecap:butt;stroke-linejoin:miter;stroke-opacity:1;stroke-miterlimit:4;stroke-dasharray:none"
           id="path5289"
           sodipodi:cx="31.563269"
           sodipodi:cy="-14.132126"
           sodipodi:expansion="1"
           sodipodi:revolution="3"
           sodipodi:radius="11.702291"
           sodipodi:argument="-17.645933"
           sodipodi:t0="0"
           d="m 31.563269,-14.132126 c 0.210625,0.547626 -0.634274,0.554098 -0.910191,0.350073 -0.747716,-0.552895 -0.408815,-1.674755 0.210045,-2.170453 1.106994,-0.886689 2.712846,-0.334489 3.430716,0.770162 1.053504,1.621119 0.264349,3.767328 -1.330279,4.690979 -2.125389,1.2310813 -4.827932,0.196377 -5.951242,-1.890396 -1.413571,-2.625992 -0.129604,-5.891528 2.450513,-7.211506 3.124868,-1.59867 6.956823,-0.06354 8.471769,3.010631 1.785312,3.622803 -0.0021,8.0231798 -3.570748,9.7320319 -4.120171,1.9729374 -9.090246,-0.067398 -10.992295,-4.1308659 -2.16123,-4.61717 0.132509,-10.157808 4.690983,-12.252558 5.113918,-2.349993 11.225733,0.197471 13.512821,5.251101 2.539101,5.610487 -0.262319,12.2939298 -5.811218,14.7730838"
           transform="scale(1,-1)" />
      </g>
    </g>
  </g>
</svg>
